<svg width="833" height="157" viewBox="0 0 833 157" fill="none" xmlns="http://www.w3.org/2000/svg">
<path d="M779.148 156.544C768.455 156.544 758.974 154.263 750.705 149.701C742.436 144.996 735.949 138.437 731.244 130.026C726.682 121.614 724.4 111.919 724.4 100.941C724.4 89.8203 726.682 79.9828 731.244 71.4285C735.806 62.7316 742.222 55.9594 750.491 51.112C758.76 46.122 768.384 43.627 779.362 43.627C790.055 43.627 799.322 45.9794 807.163 50.6843C815.147 55.3891 821.278 61.7336 825.555 69.7176C829.975 77.7017 832.185 86.6837 832.185 96.6637C832.185 98.0895 832.185 99.6577 832.185 101.369C832.185 103.079 832.042 104.933 831.757 106.929H744.289V89.6064H804.169C803.742 82.4778 801.175 76.8462 796.471 72.7116C791.908 68.4345 786.205 66.2959 779.362 66.2959C774.229 66.2959 769.524 67.4365 765.247 69.7176C761.113 71.9988 757.834 75.4918 755.41 80.1967C752.986 84.759 751.774 90.5331 751.774 97.5192V103.721C751.774 109.994 752.915 115.412 755.196 119.974C757.477 124.394 760.685 127.816 764.82 130.239C768.954 132.663 773.659 133.875 778.934 133.875C784.495 133.875 789.057 132.734 792.621 130.453C796.328 128.03 799.108 124.893 800.962 121.044H829.191C827.195 127.744 823.844 133.804 819.14 139.221C814.577 144.497 808.874 148.703 802.031 151.839C795.33 154.976 787.702 156.544 779.148 156.544Z" fill="#0D00DE"/>
<path d="M678.92 153.978V0H706.721V153.978H678.92Z" fill="#0D00DE"/>
<path d="M598.08 156.544C589.098 156.544 581.685 155.118 575.839 152.267C569.994 149.273 565.645 145.281 562.794 140.291C560.085 135.301 558.73 129.883 558.73 124.038C558.73 117.337 560.37 111.491 563.649 106.501C567.071 101.511 572.204 97.6617 579.047 94.9529C585.89 92.1014 594.373 90.6757 604.496 90.6757H631.228C631.228 85.1154 630.516 80.5531 629.09 76.9888C627.664 73.4245 625.383 70.7869 622.246 69.0761C619.252 67.2226 615.189 66.2959 610.056 66.2959C604.639 66.2959 599.934 67.579 595.942 70.1453C592.092 72.5691 589.669 76.2759 588.671 81.266H561.724C562.437 73.5671 564.932 66.9375 569.21 61.3772C573.629 55.8169 579.403 51.4684 586.532 48.3318C593.661 45.1952 601.573 43.627 610.27 43.627C620.393 43.627 629.09 45.3378 636.361 48.7595C643.775 52.1813 649.406 57.1713 653.256 63.7296C657.105 70.1453 659.03 77.9868 659.03 87.254V153.978H635.719L632.725 137.297C631.157 140.148 629.232 142.714 626.951 144.996C624.813 147.277 622.318 149.344 619.466 151.198C616.615 152.908 613.407 154.192 609.843 155.047C606.278 156.045 602.357 156.544 598.08 156.544ZM604.496 134.944C608.346 134.944 611.767 134.231 614.761 132.806C617.755 131.38 620.322 129.455 622.46 127.032C624.741 124.465 626.523 121.614 627.807 118.477C629.09 115.198 629.945 111.776 630.373 108.212V107.784H607.704C603.142 107.784 599.364 108.426 596.37 109.709C593.518 110.85 591.379 112.489 589.954 114.628C588.671 116.624 588.029 118.976 588.029 121.685C588.029 124.537 588.671 126.96 589.954 128.956C591.379 130.81 593.304 132.307 595.728 133.447C598.294 134.445 601.217 134.944 604.496 134.944Z" fill="#0D00DE"/>
<path d="M494.112 156.544C483.276 156.544 473.653 154.192 465.241 149.487C456.972 144.639 450.485 138.01 445.78 129.598C441.075 121.044 438.723 111.349 438.723 100.513C438.723 89.25 441.075 79.4125 445.78 71.0008C450.485 62.4465 456.972 55.7456 465.241 50.8981C473.653 46.0507 483.276 43.627 494.112 43.627C507.799 43.627 519.276 47.2625 528.543 54.5337C537.81 61.6623 543.727 71.4998 546.293 84.0461H516.995C515.712 78.9135 512.931 74.9215 508.654 72.0701C504.52 69.0761 499.601 67.5791 493.898 67.5791C488.765 67.5791 484.132 68.8622 479.997 71.4285C476.005 73.9948 472.797 77.7017 470.374 82.5491C468.092 87.3966 466.952 93.242 466.952 100.085C466.952 105.218 467.594 109.852 468.877 113.986C470.302 117.978 472.227 121.4 474.651 124.251C477.075 127.103 479.926 129.241 483.205 130.667C486.484 132.093 490.049 132.806 493.898 132.806C497.747 132.806 501.24 132.164 504.377 130.881C507.514 129.598 510.151 127.744 512.29 125.321C514.571 122.754 516.139 119.76 516.995 116.339H546.293C543.869 128.457 537.953 138.223 528.543 145.637C519.276 152.908 507.799 156.544 494.112 156.544Z" fill="#0D00DE"/>
<path d="M373.949 156.544C363.113 156.544 353.418 154.691 344.864 150.984C336.452 147.134 329.823 141.645 324.975 134.517C320.128 127.388 317.633 118.834 317.49 108.854H346.789C346.931 113.416 348.072 117.551 350.211 121.258C352.492 124.964 355.628 127.887 359.62 130.026C363.612 132.164 368.317 133.234 373.735 133.234C378.44 133.234 382.503 132.449 385.925 130.881C389.489 129.313 392.198 127.174 394.051 124.465C396.047 121.614 397.045 118.264 397.045 114.414C397.045 109.994 395.976 106.359 393.838 103.507C391.842 100.513 388.99 98.0183 385.283 96.0223C381.576 93.8837 377.299 92.0303 372.452 90.462C367.604 88.7511 362.472 86.969 357.054 85.1156C345.221 81.2661 336.238 76.2048 330.108 69.9316C323.977 63.5159 320.912 55.0329 320.912 44.4825C320.912 35.6431 323.051 28.0155 327.328 21.5997C331.605 15.184 337.522 10.2653 345.078 6.84353C352.777 3.4218 361.545 1.71094 371.382 1.71094C381.505 1.71094 390.345 3.49309 397.901 7.05738C405.457 10.4791 411.445 15.4691 415.865 22.0274C420.285 28.4432 422.637 36.0708 422.922 44.9102H392.982C392.982 41.4885 392.055 38.2807 390.202 35.2866C388.349 32.2926 385.782 29.8689 382.503 28.0155C379.367 26.162 375.517 25.2353 370.955 25.2353C367.105 25.0927 363.612 25.7343 360.476 27.16C357.339 28.4432 354.844 30.3679 352.991 32.9342C351.137 35.5005 350.211 38.7084 350.211 42.5578C350.211 46.2647 351.066 49.4013 352.777 51.9676C354.63 54.3913 357.125 56.5299 360.262 58.3833C363.541 60.0942 367.319 61.7337 371.596 63.302C376.016 64.7278 380.792 66.2961 385.925 68.0069C393.481 70.5732 400.325 73.6385 406.455 77.2028C412.586 80.6245 417.433 85.1156 420.998 90.6759C424.704 96.2362 426.558 103.507 426.558 112.489C426.558 120.331 424.562 127.602 420.57 134.303C416.578 140.861 410.661 146.208 402.82 150.342C394.978 154.477 385.355 156.544 373.949 156.544Z" fill="#0D00DE"/>
<path d="M281.693 153.978C274.279 153.978 267.721 152.837 262.018 150.556C256.458 148.132 252.181 144.211 249.187 138.794C246.192 133.376 244.695 126.033 244.695 116.766V69.5036H226.09V46.1931H244.695L247.689 17.1084H272.283V46.1931H301.154V69.5036H272.497V116.98C272.497 121.97 273.566 125.463 275.705 127.459C277.843 129.313 281.622 130.239 287.039 130.239H300.726V153.978H281.693Z" fill="#0D00DE"/>
<path d="M165.827 156.544C155.134 156.544 145.653 154.263 137.384 149.701C129.114 144.996 122.627 138.437 117.923 130.026C113.36 121.614 111.079 111.919 111.079 100.941C111.079 89.8203 113.36 79.9828 117.923 71.4285C122.485 62.7316 128.901 55.9594 137.17 51.112C145.439 46.122 155.063 43.627 166.041 43.627C176.734 43.627 186.001 45.9794 193.842 50.6843C201.826 55.3891 207.957 61.7336 212.234 69.7176C216.654 77.7017 218.864 86.6837 218.864 96.6637C218.864 98.0895 218.864 99.6577 218.864 101.369C218.864 103.079 218.721 104.933 218.436 106.929H130.968V89.6064H139.053H190.848C190.42 82.4778 187.854 76.8462 183.149 72.7116C178.587 68.4345 172.884 66.2959 166.041 66.2959C160.908 66.2959 156.203 67.4365 151.926 69.7176C147.791 71.9988 144.512 75.4918 142.089 80.1967C139.665 84.759 138.453 90.5331 138.453 97.5192V103.721C138.453 109.994 139.593 115.412 141.875 119.974C144.156 124.394 147.364 127.816 151.498 130.239C155.633 132.663 160.338 133.875 165.613 133.875C171.173 133.875 175.736 132.734 179.3 130.453C183.007 128.03 185.787 124.893 187.64 121.044H215.87C213.874 127.744 210.523 133.804 205.818 139.221C201.256 144.497 195.553 148.703 188.71 151.839C182.009 154.976 174.381 156.544 165.827 156.544Z" fill="#0D00DE"/>
<path d="M48.118 156.543C38.4232 156.543 29.9401 154.69 22.6689 150.983C15.5403 147.276 9.98004 141.93 5.98802 134.944C1.99601 127.815 0 119.189 0 109.067H27.8015C27.8015 113.629 28.4431 117.621 29.7263 121.043C31.152 124.465 33.2906 127.102 36.142 128.956C39.136 130.809 42.9142 131.736 47.4765 131.736C51.8962 131.736 55.4605 130.88 58.1694 129.169C60.8782 127.459 62.8743 125.035 64.1574 121.898C65.4406 118.619 66.0821 114.841 66.0821 110.564V4.27637H93.8837V110.564C93.8837 125.391 89.7491 136.797 81.4799 144.781C73.2107 152.623 62.0901 156.543 48.118 156.543Z" fill="#0D00DE"/>
</svg>
